<svg width="538" height="404" viewBox="0 0 538 404" fill="none" xmlns="http://www.w3.org/2000/svg">
<path opacity="0.4" d="M434.84 129.15C433.9 128.818 433.281 128.032 433.281 127.156C433.281 69.572 379.142 22.8911 312.357 22.8911C265.541 22.8911 224.939 45.8309 204.843 79.3854C202.733 82.9097 198.374 84.9998 193.787 84.7022C189.273 84.4086 184.714 84.2591 180.112 84.2591C80.2471 84.2591 -0.635053 154.338 0.00375813 240.572C0.639445 326.34 81.317 395.173 180.79 394.856C195.63 394.809 210.046 393.215 223.833 390.249C253.808 383.804 285.382 385.042 314.324 394.361C332.081 400.079 351.286 403.238 371.336 403.315C462.29 403.668 536.737 340.157 537.25 261.735C537.64 201.888 495.213 150.547 434.842 129.15H434.84Z" fill="url(#paint0_linear_1103_9211)"/>
<path d="M300.927 351.332C316.07 349.917 343.484 343.108 353.761 329.037C363.249 316.047 351.662 298.318 358.679 285.572C365.697 272.825 404.95 265.62 416.018 250.982C429.142 233.623 400.761 217.022 414.554 205.26C428.349 193.497 474.154 181.925 478.602 167.029C483.051 152.132 464.916 151.407 481.932 124.31C496.341 101.365 515.624 71.2827 499.806 57.1524C482.951 42.0927 460.341 65.2585 448.174 83.7341C432.5 107.536 419.36 80.4713 402.418 90.9359C387.103 100.398 385.511 157.5 373.675 168.09C361.839 178.678 340.708 168.777 324.112 187.407C307.515 206.037 328.054 238.025 319.22 252.244C310.386 266.464 287.91 259.343 275.267 279.526C262.623 299.707 300.926 351.332 300.926 351.332H300.927Z" fill="url(#paint1_linear_1103_9211)"/>
<path d="M28.3407 201.83C17.342 258.509 133.459 283.268 133.549 294.309C133.638 305.35 74.3117 299.16 86.852 328.822C98.4725 356.303 190.969 365.319 257.758 332.407C259.692 331.454 305.817 247.328 269.766 199.351C233.714 151.378 224.921 235.326 208.602 233.496C192.282 231.662 225.816 128.129 192.164 106.816C157.293 84.734 148.169 158.722 131.814 147.733C116.322 137.321 106.176 32.6857 64.3344 47.1207C62.8178 47.6423 61.2621 48.3218 59.6596 49.1683L59.6409 49.1761C58.7928 49.6259 57.9338 50.121 57.0607 50.6646C9.05928 80.5622 103.961 189.066 82.9458 193.738C61.9306 198.413 33.9151 173.107 28.3407 201.83Z" fill="url(#paint2_linear_1103_9211)"/>
<path d="M230.746 341.078C230.746 341.078 181.712 257.764 139.205 214.036C96.7001 170.308 63.7178 161.988 63.7178 161.988C63.7178 161.988 84.2019 181.125 102.37 209.338C120.538 237.55 133.111 269.373 155.705 295.443C189.885 334.882 230.746 341.078 230.746 341.078Z" fill="url(#paint3_linear_1103_9211)"/>
<path d="M214.689 343.015C214.689 343.015 172.19 290.345 138.271 264.421C104.351 238.497 80.6577 236.115 80.6577 236.115C80.6577 236.115 96.806 247.268 112.28 264.944C127.753 282.618 139.723 303.368 158.043 319.105C185.757 342.913 214.689 343.016 214.689 343.016V343.015Z" fill="url(#paint4_linear_1103_9211)"/>
<path d="M345.285 212.175H410.65L438.893 240.42H508.381V242.558H438.007L409.762 214.314H345.285V212.175Z" fill="url(#paint5_linear_1103_9211)"/>
<path d="M345.285 212.175H410.65L438.893 240.42H508.381V242.558H438.007L409.762 214.314H345.285V212.175Z" fill="url(#paint6_linear_1103_9211)"/>
<path d="M512.918 246.024C515.424 243.519 515.424 239.456 512.919 236.951C510.413 234.445 506.35 234.445 503.845 236.951C501.339 239.456 501.339 243.519 503.845 246.025C506.35 248.53 510.413 248.53 512.918 246.024Z" fill="url(#paint7_linear_1103_9211)"/>
<path d="M512.918 246.024C515.424 243.519 515.424 239.456 512.919 236.951C510.413 234.445 506.35 234.445 503.845 236.951C501.339 239.456 501.339 243.519 503.845 246.025C506.35 248.53 510.413 248.53 512.918 246.024Z" fill="url(#paint8_linear_1103_9211)"/>
<path d="M458.615 163.327H521.462V165.465H459.5L440.263 184.703H312.5V182.563H439.377L458.615 163.327Z" fill="url(#paint9_linear_1103_9211)"/>
<path d="M458.615 163.327H521.462V165.465H459.5L440.263 184.703H312.5V182.563H439.377L458.615 163.327Z" fill="url(#paint10_linear_1103_9211)"/>
<path d="M527.82 165.438C528.387 161.941 526.012 158.645 522.514 158.077C519.017 157.509 515.721 159.884 515.153 163.382C514.585 166.88 516.961 170.176 520.458 170.744C523.956 171.311 527.252 168.936 527.82 165.438Z" fill="url(#paint11_linear_1103_9211)"/>
<path d="M527.82 165.438C528.387 161.941 526.012 158.645 522.514 158.077C519.017 157.509 515.721 159.884 515.153 163.382C514.585 166.88 516.961 170.176 520.458 170.744C523.956 171.311 527.252 168.936 527.82 165.438Z" fill="url(#paint12_linear_1103_9211)"/>
<path d="M431.46 115.744H468.325V117.882H432.346L410.965 139.263H361.783V137.124H410.079L431.46 115.744Z" fill="url(#paint13_linear_1103_9211)"/>
<path d="M431.46 115.744H468.325V117.882H432.346L410.965 139.263H361.783V137.124H410.079L431.46 115.744Z" fill="url(#paint14_linear_1103_9211)"/>
<path d="M470.781 122.74C474.055 121.384 475.609 117.631 474.253 114.357C472.897 111.083 469.144 109.529 465.87 110.885C462.596 112.241 461.042 115.994 462.398 119.268C463.754 122.542 467.507 124.096 470.781 122.74Z" fill="url(#paint15_linear_1103_9211)"/>
<path d="M470.781 122.74C474.055 121.384 475.609 117.631 474.253 114.357C472.897 111.083 469.144 109.529 465.87 110.885C462.596 112.241 461.042 115.994 462.398 119.268C463.754 122.542 467.507 124.096 470.781 122.74Z" fill="url(#paint16_linear_1103_9211)"/>
<path d="M135.788 227.559H213.666V229.697H136.673L116.733 249.639H77.4717V247.499H115.846L135.788 227.559Z" fill="url(#paint17_linear_1103_9211)"/>
<path d="M76.5954 254.986C80.139 254.986 83.0116 252.113 83.0116 248.569C83.0116 245.026 80.139 242.153 76.5954 242.153C73.0518 242.153 70.1792 245.026 70.1792 248.569C70.1792 252.113 73.0518 254.986 76.5954 254.986Z" fill="url(#paint18_linear_1103_9211)"/>
<path d="M76.5954 254.986C80.139 254.986 83.0116 252.113 83.0116 248.569C83.0116 245.026 80.139 242.153 76.5954 242.153C73.0518 242.153 70.1792 245.026 70.1792 248.569C70.1792 252.113 73.0518 254.986 76.5954 254.986Z" fill="url(#paint19_linear_1103_9211)"/>
<path d="M90.8988 180.154H148.062L168.99 201.083H238.102V203.222H168.104L147.177 182.294H91.7844L72.0047 202.074H30.9834V199.935H71.1176L90.8988 180.154Z" fill="url(#paint20_linear_1103_9211)"/>
<path d="M90.8988 180.154H148.062L168.99 201.083H238.102V203.222H168.104L147.177 182.294H91.7844L72.0047 202.074H30.9834V199.935H71.1176L90.8988 180.154Z" fill="url(#paint21_linear_1103_9211)"/>
<path d="M30.9836 207.459C34.5272 207.459 37.3998 204.586 37.3998 201.043C37.3998 197.499 34.5272 194.626 30.9836 194.626C27.44 194.626 24.5674 197.499 24.5674 201.043C24.5674 204.586 27.44 207.459 30.9836 207.459Z" fill="url(#paint22_linear_1103_9211)"/>
<path d="M30.9836 207.459C34.5272 207.459 37.3998 204.586 37.3998 201.043C37.3998 197.499 34.5272 194.626 30.9836 194.626C27.44 194.626 24.5674 197.499 24.5674 201.043C24.5674 204.586 27.44 207.459 30.9836 207.459Z" fill="url(#paint23_linear_1103_9211)"/>
<path d="M91.8379 121.926H136.217L156.37 142.079H205.107V144.217H155.485L135.332 124.064H91.8379V121.926Z" fill="url(#paint24_linear_1103_9211)"/>
<path d="M91.8379 121.926H136.217L156.37 142.079H205.107V144.217H155.485L135.332 124.064H91.8379V121.926Z" fill="url(#paint25_linear_1103_9211)"/>
<path d="M91.8376 129.411C95.3812 129.411 98.2538 126.539 98.2538 122.995C98.2538 119.452 95.3812 116.579 91.8376 116.579C88.294 116.579 85.4214 119.452 85.4214 122.995C85.4214 126.539 88.294 129.411 91.8376 129.411Z" fill="url(#paint26_linear_1103_9211)"/>
<path d="M91.8376 129.411C95.3812 129.411 98.2538 126.539 98.2538 122.995C98.2538 119.452 95.3812 116.579 91.8376 116.579C88.294 116.579 85.4214 119.452 85.4214 122.995C85.4214 126.539 88.294 129.411 91.8376 129.411Z" fill="url(#paint27_linear_1103_9211)"/>
<path d="M306.083 357.587H205.75V165.644H267.064L306.083 357.587Z" fill="url(#paint28_linear_1103_9211)"/>
<path d="M403.036 177.366C403.119 165.569 390.734 158.097 383.847 123.273C382.541 116.673 381.616 109.938 380.178 103.256C361.59 16.8916 296.726 -16.1079 226.551 8.13412C160.491 30.9548 142.281 92.2416 179.574 174.245C214.997 252.136 292.422 294.887 337.038 278.724C365.569 268.389 381.488 235.665 386.007 194.131C393.846 191.579 402.969 186.625 403.034 177.367L403.036 177.366Z" fill="url(#paint29_linear_1103_9211)"/>
<path d="M190.24 61.0932C193.079 55.75 190.416 47.8016 199.783 40.1983C209.151 32.595 215.406 36.5185 224.02 32.3701C232.634 28.2233 234.408 19.1941 247.038 16.2218C258.168 13.601 267.942 19.7251 277.559 18.763C287.175 17.8024 292.748 13.9243 302.5 16.0547C311.131 17.9383 314.55 25.8665 319.458 28.9512C324.387 32.0484 334.541 30.096 339.653 38.5068C343.843 45.4009 340.41 53.5415 341.724 60.7589C342.956 67.5281 349.096 71.5172 346.156 80.3372C343.509 88.2778 328.691 87.4844 324.365 92.7729C320.037 98.0614 320.67 110.553 311.861 120.126C303.052 129.699 288.823 125.715 280.576 130.577C272.329 135.439 273.638 147.395 267.669 152.593C261.833 157.674 250.629 156.387 245.065 160.324C239.503 164.26 233.674 179.87 221.243 178.698C209.884 177.628 207.166 163.017 202.777 160.101C198.843 157.486 192.109 159.275 186.84 153.527C181.451 147.648 183.735 139.853 182.041 135.487C180.366 131.167 170.832 128.218 170.296 115.119C169.746 101.719 177.603 99.0969 177.895 92.6276C178.187 86.1599 174.01 81.1087 176.919 74.5348C180.884 65.568 187.967 65.3665 190.24 61.0901V61.0932Z" fill="url(#paint30_linear_1103_9211)"/>
<path d="M328.031 60.1295C328.039 60.0748 328.037 60.0186 328.026 59.9655C328.025 59.9561 328.02 59.9467 328.017 59.9373C328.004 59.8936 327.986 59.8514 327.962 59.8124C327.953 59.7983 327.945 59.7858 327.934 59.7718C327.926 59.7609 327.92 59.7484 327.912 59.739L299.238 28.1108C299.238 28.1108 299.225 28.103 299.219 28.0983C299.192 28.0718 299.167 28.0452 299.135 28.0249C299.121 28.0155 299.103 28.0124 299.088 28.0046C299.071 27.9968 299.055 27.989 299.038 27.9828C298.985 27.964 298.928 27.9531 298.874 27.9531C298.869 27.9531 298.864 27.95 298.86 27.95H298.85L251.71 29.6352C251.71 29.6352 251.696 29.6399 251.688 29.6399C251.658 29.643 251.628 29.6524 251.599 29.6602C251.566 29.6696 251.533 29.6774 251.505 29.693C251.497 29.6961 251.489 29.6961 251.483 29.7008L209.423 54.1474C209.423 54.1474 209.42 54.1506 209.418 54.1521C209.386 54.1724 209.353 54.1959 209.325 54.2224C209.314 54.2333 209.308 54.2458 209.298 54.2568C209.293 54.263 209.286 54.2646 209.283 54.2708L189.518 80.0544C189.518 80.0544 189.515 80.0607 189.514 80.0622C189.501 80.0794 189.495 80.1013 189.484 80.1216C189.465 80.1575 189.445 80.1919 189.436 80.2309C189.436 80.2356 189.431 80.2387 189.429 80.245C189.425 80.2668 189.429 80.2871 189.429 80.309C189.426 80.3387 189.418 80.3668 189.422 80.3965L193.253 121.505C193.253 121.516 193.261 121.524 193.262 121.533C193.27 121.582 193.284 121.627 193.306 121.671C193.314 121.686 193.32 121.701 193.328 121.716C193.333 121.724 193.336 121.735 193.34 121.743L220.887 160.418C220.894 160.427 220.905 160.431 220.912 160.44C220.95 160.485 220.992 160.523 221.044 160.552C221.067 160.566 221.09 160.573 221.115 160.582C221.14 160.591 221.162 160.607 221.189 160.613C221.22 160.62 221.253 160.623 221.284 160.623C221.334 160.623 221.382 160.613 221.431 160.598C221.446 160.593 221.462 160.585 221.476 160.577C221.495 160.57 221.515 160.563 221.532 160.554L256.751 139.392C256.751 139.392 256.762 139.379 256.77 139.375C256.781 139.367 256.794 139.365 256.803 139.358L299.178 105.757C299.178 105.757 299.188 105.746 299.192 105.741C299.203 105.732 299.216 105.724 299.225 105.715C299.244 105.696 299.258 105.672 299.274 105.651C299.277 105.646 299.283 105.641 299.288 105.637L327.962 60.3278C327.967 60.32 327.969 60.3091 327.973 60.3013C327.984 60.2825 327.997 60.2653 328.004 60.2435C328.014 60.2216 328.015 60.1966 328.02 60.1748C328.023 60.1607 328.028 60.1466 328.029 60.1326L328.031 60.1295ZM299.141 104.047L292.165 63.9045L326.61 60.6418L299.141 104.047ZM190.449 80.9712L216.945 86.872L194.093 120.079L190.449 80.9712ZM209.442 55.6609L217.09 85.9068L190.754 80.0419L209.442 55.6609ZM252.389 65.9022L290.305 64.0217L263.591 99.8419L252.389 65.9022ZM218.063 85.7897L210.34 55.2439L250.505 65.6335L218.063 85.7897ZM230.054 112.321L194.852 120.693L217.689 87.5093L230.054 112.321ZM218.388 86.733L250.641 66.6956L230.738 111.512L218.388 86.7346V86.733ZM251.66 66.7971L262.638 100.057L231.68 111.786L251.66 66.7971ZM291.26 64.37L298.285 104.798L264.648 100.054L291.26 64.37ZM253.231 64.887L298.124 29.6462L291.06 63.0096L253.231 64.887ZM251.241 64.8198L210.937 54.3927L251.241 30.966V64.8182V64.8198ZM230.138 113.302L221.026 158.937L194.551 121.766L230.138 113.302ZM231.06 113.652L255.724 138.873L221.974 159.153L231.06 113.652ZM231.632 112.845L262.621 101.104L262.612 101.157L262.526 101.273C262.405 101.435 262.401 101.647 262.497 101.811L256.186 137.955L231.632 112.845ZM263.53 101.552L263.984 100.941L297.687 105.694L257.201 137.797L263.53 101.552ZM292.07 62.9362L299.158 29.4681L326.541 59.6718L292.072 62.9362H292.07ZM297.402 28.9761L252.214 64.4481V30.5911L297.402 28.9761Z" fill="url(#paint31_linear_1103_9211)"/>
<path d="M251.727 37.3542C255.721 37.3542 258.958 34.1165 258.958 30.1226C258.958 26.1288 255.721 22.8911 251.727 22.8911C247.733 22.8911 244.495 26.1288 244.495 30.1226C244.495 34.1165 247.733 37.3542 251.727 37.3542Z" fill="url(#paint32_linear_1103_9211)"/>
<path d="M261.27 143.743C263.904 141.109 263.904 136.839 261.27 134.205C258.636 131.572 254.366 131.572 251.732 134.205C249.098 136.839 249.098 141.109 251.732 143.743C254.366 146.377 258.636 146.377 261.27 143.743Z" fill="url(#paint33_linear_1103_9211)"/>
<path d="M326.828 66.0866C330.154 66.0866 332.849 63.3908 332.849 60.0655C332.849 56.7402 330.154 54.0444 326.828 54.0444C323.503 54.0444 320.807 56.7402 320.807 60.0655C320.807 63.3908 323.503 66.0866 326.828 66.0866Z" fill="url(#paint34_linear_1103_9211)"/>
<path d="M302.49 108.987C304.485 106.992 304.485 103.757 302.49 101.762C300.495 99.7668 297.26 99.7668 295.265 101.762C293.27 103.757 293.27 106.992 295.265 108.987C297.26 110.982 300.495 110.982 302.49 108.987Z" fill="url(#paint35_linear_1103_9211)"/>
<path d="M193.734 128.759C197.764 128.759 201.031 125.492 201.031 121.462C201.031 117.432 197.764 114.165 193.734 114.165C189.704 114.165 186.437 117.432 186.437 121.462C186.437 125.492 189.704 128.759 193.734 128.759Z" fill="url(#paint36_linear_1103_9211)"/>
<path d="M298.877 31.0221C300.305 31.0221 301.462 29.8648 301.462 28.4372C301.462 27.0096 300.305 25.8523 298.877 25.8523C297.449 25.8523 296.292 27.0096 296.292 28.4372C296.292 29.8648 297.449 31.0221 298.877 31.0221Z" fill="url(#paint37_linear_1103_9211)"/>
<path d="M224.534 160.676C224.824 158.886 223.609 157.199 221.819 156.909C220.029 156.618 218.343 157.834 218.052 159.624C217.762 161.413 218.977 163.1 220.767 163.39C222.557 163.681 224.243 162.465 224.534 160.676Z" fill="url(#paint38_linear_1103_9211)"/>
<path d="M255.977 66.4457C256.532 64.0925 255.075 61.7346 252.721 61.1792C250.368 60.6238 248.01 62.0812 247.455 64.4344C246.899 66.7876 248.357 69.1456 250.71 69.701C253.063 70.2564 255.421 68.799 255.977 66.4457Z" fill="url(#paint39_linear_1103_9211)"/>
<path d="M291.597 66.8752C293.477 66.8752 295.002 65.3508 295.002 63.4703C295.002 61.5899 293.477 60.0654 291.597 60.0654C289.716 60.0654 288.192 61.5899 288.192 63.4703C288.192 65.3508 289.716 66.8752 291.597 66.8752Z" fill="url(#paint40_linear_1103_9211)"/>
<path d="M217.756 89.96C219.636 89.96 221.16 88.4355 221.16 86.5551C221.16 84.6746 219.636 83.1501 217.756 83.1501C215.875 83.1501 214.351 84.6746 214.351 86.5551C214.351 88.4355 215.875 89.96 217.756 89.96Z" fill="url(#paint41_linear_1103_9211)"/>
<path d="M263.246 103.106C264.769 103.106 266.004 101.871 266.004 100.348C266.004 98.8248 264.769 97.5898 263.246 97.5898C261.722 97.5898 260.487 98.8248 260.487 100.348C260.487 101.871 261.722 103.106 263.246 103.106Z" fill="url(#paint42_linear_1103_9211)"/>
<path d="M189.902 82.8657C191.29 82.8657 192.415 81.7406 192.415 80.3527C192.415 78.9647 191.29 77.8396 189.902 77.8396C188.514 77.8396 187.389 78.9647 187.389 80.3527C187.389 81.7406 188.514 82.8657 189.902 82.8657Z" fill="url(#paint43_linear_1103_9211)"/>
<path d="M230.763 116.971C233.147 116.971 235.08 115.038 235.08 112.654C235.08 110.27 233.147 108.337 230.763 108.337C228.379 108.337 226.446 110.27 226.446 112.654C226.446 115.038 228.379 116.971 230.763 116.971Z" fill="url(#paint44_linear_1103_9211)"/>
<path d="M209.667 59.2518C212.253 59.2518 214.349 57.1553 214.349 54.5692C214.349 51.9832 212.253 49.8867 209.667 49.8867C207.081 49.8867 204.984 51.9832 204.984 54.5692C204.984 57.1553 207.081 59.2518 209.667 59.2518Z" fill="url(#paint45_linear_1103_9211)"/>
<path d="M238.09 152.024L233.466 174.466C233.465 174.473 233.457 174.48 233.449 174.48H188.743C188.733 174.48 188.723 174.469 188.726 174.458L193.121 153.124C193.47 151.434 192.18 149.85 190.454 149.85C189.16 149.85 188.047 150.759 187.786 152.024L141.982 374.343C141.679 375.816 142.627 377.258 144.1 377.561C144.286 377.6 144.47 377.617 144.653 377.617C145.918 377.617 147.052 376.73 147.318 375.441L155.897 333.801C155.899 333.793 155.906 333.787 155.914 333.787H200.62C200.631 333.787 200.64 333.798 200.637 333.809L192.308 374.235C192.03 375.582 192.729 376.989 194.023 377.453C194.332 377.564 194.649 377.617 194.955 377.617C196.22 377.617 197.354 376.73 197.62 375.441L206.607 331.824C206.646 331.688 206.675 331.549 206.693 331.407L212.96 300.988C212.985 300.892 213.006 300.796 213.02 300.696L219.299 270.222C219.325 270.122 219.345 270.02 219.361 269.917L225.637 239.457C225.665 239.353 225.687 239.246 225.702 239.139L231.975 208.691C232.005 208.583 232.028 208.473 232.044 208.359L238.31 177.944C238.344 177.822 238.369 177.697 238.388 177.569L243.425 153.124C243.773 151.434 242.483 149.85 240.757 149.85C239.464 149.85 238.35 150.759 238.09 152.024ZM201.749 328.339H157.043C157.032 328.339 157.023 328.328 157.026 328.317L162.237 303.029C162.238 303.021 162.246 303.015 162.254 303.015H206.96C206.971 303.015 206.98 303.026 206.977 303.037L201.766 328.325C201.765 328.333 201.757 328.339 201.749 328.339ZM208.089 297.567H163.383C163.372 297.567 163.363 297.556 163.366 297.545L168.576 272.257C168.578 272.249 168.586 272.243 168.594 272.243H213.299C213.31 272.243 213.32 272.254 213.317 272.265L208.106 297.553C208.105 297.561 208.097 297.567 208.089 297.567ZM214.429 266.795H169.723C169.712 266.795 169.703 266.784 169.706 266.773L174.916 241.485C174.918 241.477 174.925 241.47 174.933 241.47H219.639C219.65 241.47 219.659 241.481 219.656 241.492L214.446 266.781C214.444 266.789 214.436 266.795 214.429 266.795ZM220.768 236.023H176.062C176.052 236.023 176.042 236.012 176.045 236.001L181.256 210.712C181.257 210.704 181.265 210.698 181.273 210.698H225.979C225.99 210.698 225.999 210.709 225.996 210.72L220.785 236.009C220.784 236.016 220.776 236.023 220.768 236.023ZM227.108 205.25H182.402C182.391 205.25 182.382 205.239 182.385 205.229L187.594 179.943C187.595 179.935 187.603 179.929 187.611 179.929H232.317C232.328 179.929 232.337 179.94 232.334 179.951L227.125 205.236C227.124 205.244 227.116 205.25 227.108 205.25Z" fill="url(#paint46_linear_1103_9211)"/>
<path d="M176.225 187.566L202.725 195.706L199.95 196.848L210.358 179.711L211.303 178.155L214.374 179.895L213.526 181.506L204.181 199.244C203.665 200.222 202.555 200.684 201.53 200.418L201.405 200.386L174.566 193.446L176.228 187.566H176.225Z" fill="#EFBC90"/>
<path d="M217.337 171.426C218.388 172.106 218.483 174.804 217.073 177.625C215.772 180.226 213.596 181.197 212.488 180.587C210.014 179.223 215.709 170.377 217.337 171.426Z" fill="#EFBC90"/>
<path d="M185.295 161.638C179.823 157.718 173.238 160.39 172.362 166.052C171.227 173.399 172.662 179.315 170.836 184.19C168.006 191.745 168.79 199.169 168.79 199.169C176.254 188.993 183.968 193.205 188.228 182.983C189.596 179.698 190.535 165.394 185.293 161.638H185.295Z" fill="#03053E"/>
<path d="M183.119 186.391H176.587V173.896H180.578L183.119 186.391Z" fill="#EFBC90"/>
<path d="M187.942 167.572C189.046 172.701 188.231 177.873 185.134 178.994C182.229 180.047 177.19 177.263 174.883 172.194C172.456 166.855 173.642 162.866 177.941 161.381C182.51 159.803 186.732 161.951 187.942 167.572Z" fill="#F4CAAB"/>
<path d="M196.604 292.471L192.213 260.676L187.584 228.918L186.745 223.172L174.648 225.782L176.256 231.362L185.126 262.181L193.844 293.047L194.228 294.408L196.798 293.87L196.604 292.471Z" fill="#EFBC90"/>
<path d="M170.058 223.17L169.857 228.974L168.686 262.72L153.943 284.699L153.156 285.874L155.197 287.485L156.156 286.447L174.991 266.056C175.331 265.689 175.57 265.224 175.658 264.693L175.739 264.204L181.39 230.125L182.34 224.396L170.06 223.17H170.058Z" fill="#EFBC90"/>
<path d="M172.281 222.1H189.413L196.802 281.714L186.834 283.165L172.281 222.1Z" fill="url(#paint47_linear_1103_9211)"/>
<path d="M172.281 222.1H189.413L196.802 281.714L186.834 283.165L172.281 222.1Z" fill="url(#paint48_linear_1103_9211)"/>
<path d="M167.578 222.1H184.037C184.037 222.1 181.023 260.204 178.566 264.682C175.622 270.052 163.966 282.514 163.966 282.514L156.048 276.399C156.048 276.399 164.386 264.593 166.402 259.051C168.417 253.508 167.578 222.1 167.578 222.1Z" fill="url(#paint49_linear_1103_9211)"/>
<path d="M167.578 222.1H184.037C184.037 222.1 181.023 260.204 178.566 264.682C175.622 270.052 163.966 282.514 163.966 282.514L156.048 276.399C156.048 276.399 164.386 264.593 166.402 259.051C168.417 253.508 167.578 222.1 167.578 222.1Z" fill="url(#paint50_linear_1103_9211)"/>
<path d="M205.199 185.713L214.706 191.559C214.706 191.559 206.866 201.367 200.484 201.844C191.53 202.511 171.156 197.219 172.329 190.378C173.634 182.781 187.744 192.276 196.984 192.493C200.945 192.587 205.199 185.713 205.199 185.713Z" fill="url(#paint51_linear_1103_9211)"/>
<path d="M205.199 185.713L214.706 191.559C214.706 191.559 206.866 201.367 200.484 201.844C191.53 202.511 171.156 197.219 172.329 190.378C173.634 182.781 187.744 192.276 196.984 192.493C200.945 192.587 205.199 185.713 205.199 185.713Z" fill="url(#paint52_linear_1103_9211)"/>
<path d="M176.429 185.329C176.429 185.329 179.951 188.416 183.472 186.358C183.472 186.358 184.676 199.222 186.252 204.471C187.828 209.719 191.919 223.068 191.919 223.068L166.861 223.51C166.177 211.767 170.614 198.425 176.429 185.33V185.329Z" fill="#76D3F4"/>
<path d="M177.949 193.735C175.709 196.393 173.496 199.19 171.42 202.008C170.383 203.421 169.374 204.851 168.429 206.297C167.488 207.74 166.594 209.213 165.888 210.664C165.713 211.028 165.559 211.376 165.413 211.737L164.962 212.932C164.675 213.746 164.392 214.566 164.125 215.401C163.589 217.069 163.088 218.764 162.605 220.469C161.651 223.881 160.762 227.34 159.942 230.787L159.545 232.455L156.284 231.792L156.586 230.105C157.22 226.544 157.915 223.023 158.689 219.489C159.082 217.724 159.495 215.959 159.955 214.189C160.183 213.305 160.433 212.416 160.692 211.528L161.114 210.184C161.278 209.705 161.46 209.224 161.651 208.773C162.421 206.962 163.313 205.324 164.242 203.72C165.174 202.12 166.152 200.571 167.155 199.044C169.173 195.988 171.255 193.057 173.479 190.12L175.216 187.828L179.803 191.537L177.951 193.736L177.949 193.735Z" fill="#F4CAAB"/>
<path d="M175.547 183.829C175.547 183.829 163.311 202.128 165.802 221.647C165.802 221.647 164.751 225.481 178.634 224.958C192.518 224.435 193.313 222.519 193.313 222.519C188.918 212.045 185.504 200.188 183.807 185.914C183.807 185.914 178.617 186.105 175.547 183.829Z" fill="url(#paint53_linear_1103_9211)"/>
<path d="M166.686 224.042L155.947 223.118C155.947 223.118 158.882 211.308 161.877 204.824C165.643 196.673 171.984 184.685 178.18 187.814C186.277 191.903 170.191 206.455 168.293 210.976C166.761 214.63 166.685 224.042 166.685 224.042H166.686Z" fill="url(#paint54_linear_1103_9211)"/>
<path d="M166.686 224.042L155.947 223.118C155.947 223.118 158.882 211.308 161.877 204.824C165.643 196.673 171.984 184.685 178.18 187.814C186.277 191.903 170.191 206.455 168.293 210.976C166.761 214.63 166.685 224.042 166.685 224.042H166.686Z" fill="url(#paint55_linear_1103_9211)"/>
<path d="M154.034 241.229C152.976 240.71 152.739 237.85 153.959 234.572C155.083 231.548 157.143 230.091 158.252 230.527C160.728 231.5 155.669 242.033 154.034 241.23V241.229Z" fill="#F4CAAB"/>
<path d="M158.271 237.636C158.788 237.669 159.522 236.454 159.8 234.691C160.056 233.065 159.607 231.903 159.088 231.82C157.932 231.637 157.47 237.588 158.27 237.636H158.271Z" fill="#F4CAAB"/>
<path d="M206.638 295.543L204.617 295.183L197.229 292.325V292.385C197.229 292.385 197.14 293.651 195.606 293.889C194.475 294.064 193.743 293.764 193.435 293.592C193.362 293.525 193.301 293.486 193.268 293.486C192.774 293.486 192.375 294.293 192.375 295.288C192.375 295.615 192.418 295.921 192.493 296.185V297.567H207.209V296.167C207.209 295.843 206.961 295.572 206.638 295.543Z" fill="#03053E"/>
<path d="M161.485 295.358L160.232 293.733L156.695 286.645L156.654 286.688C156.654 286.688 155.736 287.565 154.441 286.707C153.487 286.076 153.148 285.359 153.035 285.027C153.026 284.928 153.007 284.858 152.982 284.836C152.617 284.503 151.778 284.831 151.108 285.567C150.888 285.809 150.714 286.064 150.593 286.31L149.662 287.332L160.543 297.239L161.487 296.203C161.705 295.963 161.704 295.596 161.485 295.357V295.358Z" fill="#03053E"/>
<path d="M179.427 159.982C177.941 159.982 176.925 160.115 175.659 160.771C173.626 161.824 170.944 164.342 170.412 170.046C169.915 175.364 172.044 177.968 167.5 182.984C162.388 186.866 153.279 186.202 154.332 194.911C155.385 203.618 166.932 202.483 169.677 198.128C172.422 193.774 172.114 189.894 173.64 187.148C175.167 184.404 177.816 186.013 179.142 182.984C180.697 180.135 177.999 173.744 177.513 172.643C177.838 171.572 178.258 170.396 179.995 169.922C183.722 168.905 186.81 165.379 186.81 164.243C186.81 163.108 183.402 159.984 179.427 159.984V159.982Z" fill="#03053E"/>
<path d="M179.303 170.76C179.687 171.619 179.42 172.575 178.705 172.895C177.99 173.215 177.098 172.779 176.712 171.92C176.326 171.061 176.595 170.105 177.31 169.785C178.025 169.465 178.917 169.901 179.303 170.76Z" fill="#F4CAAB"/>
<path d="M213.382 173.085C212.84 172.985 211.91 174.172 211.39 175.996C210.911 177.678 211.237 178.962 211.773 179.115C212.968 179.457 214.219 173.24 213.382 173.085Z" fill="#EFBC90"/>
<path d="M297.202 264.469H387.275C392.418 264.469 396.593 268.644 396.593 273.787V365.092C396.593 370.235 392.418 374.41 387.275 374.41H297.202C292.059 374.41 287.884 370.235 287.884 365.092V273.787C287.884 268.644 292.059 264.469 297.202 264.469Z" fill="url(#paint56_linear_1103_9211)"/>
<path d="M305.427 262.771H302.763C302.354 262.771 302.022 263.103 302.022 263.512V273.909C302.022 274.318 302.354 274.65 302.763 274.65H305.427C305.836 274.65 306.168 274.318 306.168 273.909V263.512C306.168 263.103 305.836 262.771 305.427 262.771Z" fill="#46232B"/>
<path d="M318.004 262.771H315.339C314.93 262.771 314.599 263.103 314.599 263.512V273.909C314.599 274.318 314.93 274.65 315.339 274.65H318.004C318.412 274.65 318.744 274.318 318.744 273.909V263.512C318.744 263.103 318.412 262.771 318.004 262.771Z" fill="#46232B"/>
<path d="M330.582 262.771H327.917C327.508 262.771 327.177 263.103 327.177 263.512V273.909C327.177 274.318 327.508 274.65 327.917 274.65H330.582C330.991 274.65 331.322 274.318 331.322 273.909V263.512C331.322 263.103 330.991 262.771 330.582 262.771Z" fill="#46232B"/>
<path d="M343.158 262.771H340.493C340.084 262.771 339.753 263.103 339.753 263.512V273.909C339.753 274.318 340.084 274.65 340.493 274.65H343.158C343.567 274.65 343.898 274.318 343.898 273.909V263.512C343.898 263.103 343.567 262.771 343.158 262.771Z" fill="#46232B"/>
<path d="M355.734 262.771H353.069C352.661 262.771 352.329 263.103 352.329 263.512V273.909C352.329 274.318 352.661 274.65 353.069 274.65H355.734C356.143 274.65 356.474 274.318 356.474 273.909V263.512C356.474 263.103 356.143 262.771 355.734 262.771Z" fill="#46232B"/>
<path d="M368.312 262.771H365.647C365.238 262.771 364.907 263.103 364.907 263.512V273.909C364.907 274.318 365.238 274.65 365.647 274.65H368.312C368.721 274.65 369.052 274.318 369.052 273.909V263.512C369.052 263.103 368.721 262.771 368.312 262.771Z" fill="#46232B"/>
<path d="M380.888 262.771H378.224C377.815 262.771 377.483 263.103 377.483 263.512V273.909C377.483 274.318 377.815 274.65 378.224 274.65H380.888C381.297 274.65 381.629 274.318 381.629 273.909V263.512C381.629 263.103 381.297 262.771 380.888 262.771Z" fill="#46232B"/>
<path d="M296.709 355.51H286.311C285.902 355.51 285.571 355.841 285.571 356.25V358.914C285.571 359.323 285.902 359.655 286.311 359.655H296.709C297.117 359.655 297.449 359.323 297.449 358.914V356.25C297.449 355.841 297.117 355.51 296.709 355.51Z" fill="#46232B"/>
<path d="M296.709 342.933H286.311C285.902 342.933 285.571 343.265 285.571 343.674V346.338C285.571 346.747 285.902 347.079 286.311 347.079H296.709C297.117 347.079 297.449 346.747 297.449 346.338V343.674C297.449 343.265 297.117 342.933 296.709 342.933Z" fill="#46232B"/>
<path d="M296.709 330.357H286.311C285.902 330.357 285.571 330.689 285.571 331.098V333.762C285.571 334.171 285.902 334.502 286.311 334.502H296.709C297.117 334.502 297.449 334.171 297.449 333.762V331.098C297.449 330.689 297.117 330.357 296.709 330.357Z" fill="#46232B"/>
<path d="M296.709 317.779H286.311C285.902 317.779 285.571 318.111 285.571 318.52V321.184C285.571 321.593 285.902 321.925 286.311 321.925H296.709C297.117 321.925 297.449 321.593 297.449 321.184V318.52C297.449 318.111 297.117 317.779 296.709 317.779Z" fill="#46232B"/>
<path d="M296.709 305.203H286.311C285.902 305.203 285.571 305.534 285.571 305.943V308.608C285.571 309.017 285.902 309.348 286.311 309.348H296.709C297.117 309.348 297.449 309.017 297.449 308.608V305.943C297.449 305.534 297.117 305.203 296.709 305.203Z" fill="#46232B"/>
<path d="M296.709 292.626H286.311C285.902 292.626 285.571 292.958 285.571 293.367V296.031C285.571 296.44 285.902 296.772 286.311 296.772H296.709C297.117 296.772 297.449 296.44 297.449 296.031V293.367C297.449 292.958 297.117 292.626 296.709 292.626Z" fill="#46232B"/>
<path d="M296.709 280.049H286.312C285.903 280.049 285.571 280.38 285.571 280.789V283.454C285.571 283.863 285.903 284.194 286.312 284.194H296.709C297.118 284.194 297.449 283.863 297.449 283.454V280.789C297.449 280.38 297.118 280.049 296.709 280.049Z" fill="#46232B"/>
<path d="M381.715 364.228H379.051C378.642 364.228 378.311 364.56 378.311 364.969V375.366C378.311 375.775 378.642 376.106 379.051 376.106H381.715C382.124 376.106 382.456 375.775 382.456 375.366V364.969C382.456 364.56 382.124 364.228 381.715 364.228Z" fill="#46232B"/>
<path d="M369.138 364.228H366.473C366.064 364.228 365.733 364.56 365.733 364.969V375.366C365.733 375.775 366.064 376.106 366.473 376.106H369.138C369.547 376.106 369.878 375.775 369.878 375.366V364.969C369.878 364.56 369.547 364.228 369.138 364.228Z" fill="#46232B"/>
<path d="M356.562 364.228H353.897C353.488 364.228 353.157 364.56 353.157 364.969V375.366C353.157 375.775 353.488 376.106 353.897 376.106H356.562C356.971 376.106 357.302 375.775 357.302 375.366V364.969C357.302 364.56 356.971 364.228 356.562 364.228Z" fill="#46232B"/>
<path d="M343.985 364.228H341.32C340.912 364.228 340.58 364.56 340.58 364.969V375.366C340.58 375.775 340.912 376.106 341.32 376.106H343.985C344.394 376.106 344.725 375.775 344.725 375.366V364.969C344.725 364.56 344.394 364.228 343.985 364.228Z" fill="#46232B"/>
<path d="M331.407 364.228H328.743C328.334 364.228 328.002 364.56 328.002 364.969V375.366C328.002 375.775 328.334 376.106 328.743 376.106H331.407C331.816 376.106 332.148 375.775 332.148 375.366V364.969C332.148 364.56 331.816 364.228 331.407 364.228Z" fill="#46232B"/>
<path d="M318.831 364.228H316.167C315.758 364.228 315.426 364.56 315.426 364.969V375.366C315.426 375.775 315.758 376.106 316.167 376.106H318.831C319.24 376.106 319.572 375.775 319.572 375.366V364.969C319.572 364.56 319.24 364.228 318.831 364.228Z" fill="#46232B"/>
<path d="M306.255 364.228H303.59C303.182 364.228 302.85 364.56 302.85 364.969V375.366C302.85 375.775 303.182 376.106 303.59 376.106H306.255C306.664 376.106 306.995 375.775 306.995 375.366V364.969C306.995 364.56 306.664 364.228 306.255 364.228Z" fill="#46232B"/>
<path d="M398.166 279.223H387.768C387.359 279.223 387.028 279.554 387.028 279.963V282.628C387.028 283.036 387.359 283.368 387.768 283.368H398.166C398.574 283.368 398.906 283.036 398.906 282.628V279.963C398.906 279.554 398.574 279.223 398.166 279.223Z" fill="#46232B"/>
<path d="M398.166 291.799H387.768C387.359 291.799 387.028 292.13 387.028 292.539V295.204C387.028 295.613 387.359 295.944 387.768 295.944H398.166C398.574 295.944 398.906 295.613 398.906 295.204V292.539C398.906 292.13 398.574 291.799 398.166 291.799Z" fill="#46232B"/>
<path d="M398.166 304.377H387.768C387.359 304.377 387.028 304.708 387.028 305.117V307.782C387.028 308.191 387.359 308.522 387.768 308.522H398.166C398.574 308.522 398.906 308.191 398.906 307.782V305.117C398.906 304.708 398.574 304.377 398.166 304.377Z" fill="#46232B"/>
<path d="M398.166 316.953H387.768C387.359 316.953 387.028 317.285 387.028 317.693V320.358C387.028 320.767 387.359 321.098 387.768 321.098H398.166C398.574 321.098 398.906 320.767 398.906 320.358V317.693C398.906 317.285 398.574 316.953 398.166 316.953Z" fill="#46232B"/>
<path d="M398.166 329.529H387.768C387.359 329.529 387.028 329.861 387.028 330.27V332.934C387.028 333.343 387.359 333.675 387.768 333.675H398.166C398.574 333.675 398.906 333.343 398.906 332.934V330.27C398.906 329.861 398.574 329.529 398.166 329.529Z" fill="#46232B"/>
<path d="M398.166 342.107H387.768C387.359 342.107 387.028 342.439 387.028 342.848V345.512C387.028 345.921 387.359 346.253 387.768 346.253H398.166C398.574 346.253 398.906 345.921 398.906 345.512V342.848C398.906 342.439 398.574 342.107 398.166 342.107Z" fill="#46232B"/>
<path d="M398.166 354.684H387.768C387.359 354.684 387.028 355.015 387.028 355.424V358.089C387.028 358.497 387.359 358.829 387.768 358.829H398.166C398.574 358.829 398.906 358.497 398.906 358.089V355.424C398.906 355.015 398.574 354.684 398.166 354.684Z" fill="#46232B"/>
<path d="M380.204 271.733H303.428C298.282 271.733 294.11 275.905 294.11 281.051V357.827C294.11 362.974 298.282 367.146 303.428 367.146H380.204C385.35 367.146 389.522 362.974 389.522 357.827V281.051C389.522 275.905 385.35 271.733 380.204 271.733Z" fill="url(#paint57_linear_1103_9211)"/>
<path d="M336.406 291.083L354.158 347.795H339.88L336.386 336.12H318.049L314.494 347.795H302.846L321.023 291.083H336.404H336.406ZM321.237 325.651H333.252L327.297 305.75L321.237 325.651Z" fill="url(#paint58_linear_1103_9211)"/>
<path d="M373.519 291.083V347.795H360.265V291.083H373.519Z" fill="url(#paint59_linear_1103_9211)"/>
<path d="M419.621 271.624H426.801V257.887H422.414L419.621 271.624Z" fill="#EFBC90"/>
<path d="M414.317 250.932C413.104 256.571 414 262.257 417.405 263.491C420.599 264.649 426.139 261.589 428.675 256.013C431.345 250.143 430.041 245.758 425.313 244.124C420.29 242.389 415.648 244.75 414.317 250.932Z" fill="#F4CAAB"/>
<path d="M424.335 242.131C429.558 242.54 432.444 247.273 432.11 251.955C431.798 256.327 427.124 258.66 427.124 258.66C427.124 258.66 425.583 254.223 423.056 253.516C419.531 252.529 421.055 249.378 419.409 249.039C417.692 248.685 413.961 247.323 414.022 244.824C416.438 244.908 418.47 241.672 424.335 242.131Z" fill="#03053E"/>
<path d="M426.69 255.755C427.113 254.811 426.819 253.76 426.032 253.408C425.246 253.055 424.265 253.534 423.842 254.478C423.419 255.422 423.714 256.473 424.5 256.825C425.286 257.178 426.267 256.699 426.69 255.755Z" fill="#F4CAAB"/>
<path d="M424.335 253.43C424.335 253.43 423.941 259.524 422.778 261.84C421.764 263.857 417.339 265.939 414.929 261.155C414.929 261.155 417.369 261.664 417.092 260.632C416.767 259.416 414.256 259.402 414.256 259.402C414.256 259.402 413.764 259.379 413.676 258.928C413.547 258.257 413.873 257.17 413.873 257.17C413.873 257.17 417.195 258.354 418.628 258.354C420.25 258.354 421.723 257.209 423.096 253.43H424.335Z" fill="#03053E"/>
<path d="M403.359 387.802L409.96 350.88L414.444 332.688L418.958 314.457L420.493 308.26L433.439 312.389L431.098 318.329L424.277 335.635C422.01 341.412 419.704 347.187 417.461 352.987L406.374 388.537L405.911 390.02L403.089 389.331L403.362 387.802H403.359Z" fill="#EFBC90"/>
<path d="M427.212 308.411L427.727 314.774L430.648 350.826L457.909 363.604L459.316 364.263L458.287 366.948L456.8 366.498L425.541 357.048C424.386 356.697 423.449 355.744 423.181 354.482L423.07 353.962L415.12 316.619L413.791 310.375L427.212 308.41V308.411Z" fill="#EFBC90"/>
<path d="M435.337 304.477L411.137 309.177L403.571 381.509L411.688 382.621L435.337 304.477Z" fill="url(#paint60_linear_1103_9211)"/>
<path d="M436.522 309.302L412.105 305.89C412.105 305.89 415.849 351.174 423.153 356.95C427.215 360.163 449.797 365.57 449.797 365.57L452.229 358.637C452.229 358.637 435.229 351.755 433.806 349.628C432.26 347.315 436.521 309.302 436.521 309.302H436.522Z" fill="url(#paint61_linear_1103_9211)"/>
<path d="M422.506 272.658L405.869 295.073L408.802 294.342L390.136 286.652L388.441 285.954L386.989 289.197L388.638 289.996L406.801 298.809C407.802 299.294 408.979 299.007 409.652 298.179L409.734 298.078L427.363 276.435L422.508 272.658H422.506Z" fill="#EFBC90"/>
<path d="M430.713 277.491C428.189 283.587 416.722 296.96 408.086 299.207C402.959 300.541 392.147 292.496 392.147 292.496L393.892 287.576C393.892 287.576 402.097 293.363 406.709 289.222C411.321 285.082 419.666 271.642 423.743 271C427.335 270.433 431.847 274.753 430.713 277.492V277.491Z" fill="url(#paint62_linear_1103_9211)"/>
<path d="M426.311 268.722C426.311 268.722 422.543 272.026 418.776 269.824C418.776 269.824 417.488 283.585 415.802 289.2C414.117 294.815 409.294 309.169 409.294 309.169L436.547 309.569C437.28 297.005 432.532 282.733 426.311 268.722Z" fill="#DBC6AF"/>
<path d="M427.615 267.593C427.615 267.593 437.669 287.138 438.039 308.05C438.101 311.594 436.554 312.606 424.312 311.593C409.499 310.365 408.608 308.983 408.608 308.983C413.31 297.776 416.963 285.094 418.776 269.823C418.776 269.823 424.329 270.028 427.613 267.593H427.615Z" fill="#AF1F6D"/>
<path d="M424.037 278.342C426.192 281.374 428.308 284.549 430.275 287.734C431.257 289.331 432.207 290.943 433.089 292.568C433.967 294.189 434.79 295.838 435.416 297.447C435.571 297.852 435.705 298.236 435.829 298.633L436.207 299.946C436.443 300.839 436.672 301.738 436.885 302.653C437.309 304.479 437.697 306.33 438.061 308.19C438.779 311.91 439.426 315.677 439.997 319.424L440.274 321.236L443.81 320.814L443.637 318.99C443.271 315.139 442.839 311.323 442.322 307.487C442.058 305.57 441.77 303.652 441.436 301.725C441.27 300.763 441.081 299.793 440.883 298.823L440.55 297.353C440.418 296.827 440.265 296.299 440.102 295.801C439.44 293.803 438.632 291.979 437.781 290.186C436.927 288.399 436.019 286.661 435.084 284.946C433.2 281.513 431.235 278.203 429.122 274.879L427.47 272.282L422.253 275.837L424.037 278.344V278.342Z" fill="#F4CAAB"/>
<path d="M429.881 271.506C435.013 275.652 438.698 285.817 441.512 294.284C444.327 302.751 443.936 316.047 443.936 316.047L438.57 316.792C438.57 316.792 437.003 303.445 434.337 297.848C431.671 292.252 421.144 280.444 421.681 276.354C422.154 272.749 427.576 269.644 429.881 271.506Z" fill="url(#paint63_linear_1103_9211)"/>
<path d="M380.268 284.397C379.818 285.575 381.191 287.757 383.795 289.111C386.195 290.36 388.399 289.794 388.93 288.636C390.114 286.051 380.965 282.576 380.268 284.397Z" fill="#EFBC90"/>
<path d="M443.096 331.7C444.338 331.485 445.441 328.622 445.175 324.887C444.93 321.445 443.254 319.329 441.984 319.443C439.151 319.696 441.174 332.033 443.095 331.7H443.096Z" fill="#F4CAAB"/>
<path d="M439.826 326.738C439.285 326.615 438.896 325.148 439.141 323.254C439.368 321.508 440.18 320.449 440.736 320.521C441.978 320.68 440.663 326.929 439.826 326.738Z" fill="#F4CAAB"/>
<path d="M392.547 391.853C392.547 391.853 394.414 391.36 394.931 391.174C396.994 390.432 402.339 388.242 402.339 388.242C402.339 388.242 402.998 389.304 404.647 389.51C405.864 389.662 406.757 389.223 406.793 389.223C407.321 389.207 407.776 390.059 407.807 391.124C407.818 391.474 407.781 391.802 407.709 392.088L407.752 393.567L391.999 394.04L391.954 392.54C391.943 392.192 392.201 391.895 392.546 391.853H392.547Z" fill="#03053E"/>
<path d="M457.295 377.951C457.295 377.951 457.367 376.022 457.34 375.472C457.231 373.281 456.695 367.532 456.695 367.532C456.695 367.532 457.903 367.212 458.58 365.693C459.08 364.575 458.921 363.591 458.93 363.557C459.069 363.048 460.016 362.86 461.044 363.141C461.381 363.233 461.686 363.365 461.937 363.516L463.365 363.905L459.226 379.112L457.779 378.718C457.443 378.627 457.234 378.295 457.295 377.953V377.951Z" fill="#03053E"/>
<path d="M383.729 283.082C384.109 282.678 385.571 283.085 387.081 284.255C388.473 285.334 388.974 286.57 388.632 287.013C387.867 288.004 383.142 283.707 383.729 283.082Z" fill="#EFBC90"/>
<defs>
<linearGradient id="paint0_linear_1103_9211" x1="0.000634363" y1="213.104" x2="537.251" y2="213.104" gradientUnits="userSpaceOnUse">
<stop stop-color="#FFE2E4"/>
<stop offset="1" stop-color="#E3DEDF"/>
</linearGradient>
<linearGradient id="paint1_linear_1103_9211" x1="577.065" y1="150.997" x2="261.935" y2="239.555" gradientUnits="userSpaceOnUse">
<stop stop-color="#F77392"/>
<stop offset="1" stop-color="#753241"/>
</linearGradient>
<linearGradient id="paint2_linear_1103_9211" x1="5.08807" y1="204.862" x2="273.314" y2="192.601" gradientUnits="userSpaceOnUse">
<stop stop-color="#A44D61"/>
<stop offset="1" stop-color="#D06283"/>
</linearGradient>
<linearGradient id="paint3_linear_1103_9211" x1="57.5468" y1="205.127" x2="285.458" y2="327.564" gradientUnits="userSpaceOnUse">
<stop offset="0.46" stop-color="#A73C5C"/>
<stop offset="1" stop-color="#AB4563"/>
</linearGradient>
<linearGradient id="paint4_linear_1103_9211" x1="57.3111" y1="267.178" x2="327.134" y2="335.84" gradientUnits="userSpaceOnUse">
<stop stop-color="#89364A"/>
<stop offset="1" stop-color="#D06283"/>
</linearGradient>
<linearGradient id="paint5_linear_1103_9211" x1="481.489" y1="274.047" x2="372.176" y2="180.689" gradientUnits="userSpaceOnUse">
<stop stop-color="#435AC2"/>
<stop offset="1" stop-color="#0F24A4"/>
</linearGradient>
<linearGradient id="paint6_linear_1103_9211" x1="468.723" y1="268.477" x2="375.392" y2="199.107" gradientUnits="userSpaceOnUse">
<stop stop-color="#C38C98"/>
<stop offset="1" stop-color="#974C5D"/>
</linearGradient>
<linearGradient id="paint7_linear_1103_9211" x1="513.261" y1="245.656" x2="503.503" y2="237.321" gradientUnits="userSpaceOnUse">
<stop stop-color="#435AC2"/>
<stop offset="1" stop-color="#0F24A4"/>
</linearGradient>
<linearGradient id="paint8_linear_1103_9211" x1="512.145" y1="238.136" x2="503.972" y2="242.622" gradientUnits="userSpaceOnUse">
<stop stop-color="#D6B0B9"/>
<stop offset="1" stop-color="#A65366"/>
</linearGradient>
<linearGradient id="paint9_linear_1103_9211" x1="473.173" y1="222.007" x2="360.788" y2="126.024" gradientUnits="userSpaceOnUse">
<stop stop-color="#435AC2"/>
<stop offset="1" stop-color="#0F24A4"/>
</linearGradient>
<linearGradient id="paint10_linear_1103_9211" x1="470.652" y1="202.938" x2="405.104" y2="114.216" gradientUnits="userSpaceOnUse">
<stop stop-color="#C38C98"/>
<stop offset="1" stop-color="#974C5D"/>
</linearGradient>
<linearGradient id="paint11_linear_1103_9211" x1="526.352" y1="168.553" x2="516.593" y2="160.219" gradientUnits="userSpaceOnUse">
<stop stop-color="#435AC2"/>
<stop offset="1" stop-color="#0F24A4"/>
</linearGradient>
<linearGradient id="paint12_linear_1103_9211" x1="522.58" y1="159.491" x2="518.572" y2="167.909" gradientUnits="userSpaceOnUse">
<stop stop-color="#D6B0B9"/>
<stop offset="1" stop-color="#A65366"/>
</linearGradient>
<linearGradient id="paint13_linear_1103_9211" x1="441.105" y1="149.754" x2="389" y2="105.254" gradientUnits="userSpaceOnUse">
<stop stop-color="#435AC2"/>
<stop offset="1" stop-color="#0F24A4"/>
</linearGradient>
<linearGradient id="paint14_linear_1103_9211" x1="442.419" y1="159.326" x2="374.493" y2="116.72" gradientUnits="userSpaceOnUse">
<stop stop-color="#C38C98"/>
<stop offset="1" stop-color="#974C5D"/>
</linearGradient>
<linearGradient id="paint15_linear_1103_9211" x1="473.204" y1="120.98" x2="463.446" y2="112.645" gradientUnits="userSpaceOnUse">
<stop stop-color="#435AC2"/>
<stop offset="1" stop-color="#0F24A4"/>
</linearGradient>
<linearGradient id="paint16_linear_1103_9211" x1="473.085" y1="115.157" x2="463.817" y2="116.173" gradientUnits="userSpaceOnUse">
<stop stop-color="#D6B0B9"/>
<stop offset="1" stop-color="#A65366"/>
</linearGradient>
<linearGradient id="paint17_linear_1103_9211" x1="180.55" y1="268.476" x2="110.588" y2="208.724" gradientUnits="userSpaceOnUse">
<stop stop-color="#C38C98"/>
<stop offset="1" stop-color="#974C5D"/>
</linearGradient>
<linearGradient id="paint18_linear_1103_9211" x1="81.6259" y1="248.861" x2="72.6747" y2="246.253" gradientUnits="userSpaceOnUse">
<stop stop-color="#F6EEF0"/>
<stop offset="1" stop-color="#A65366"/>
</linearGradient>
<linearGradient id="paint19_linear_1103_9211" x1="81.6259" y1="248.861" x2="72.6747" y2="246.253" gradientUnits="userSpaceOnUse">
<stop stop-color="#D6B0B9"/>
<stop offset="1" stop-color="#A65366"/>
</linearGradient>
<linearGradient id="paint20_linear_1103_9211" x1="195.234" y1="253.414" x2="73.8493" y2="149.744" gradientUnits="userSpaceOnUse">
<stop stop-color="#435AC2"/>
<stop offset="1" stop-color="#0F24A4"/>
</linearGradient>
<linearGradient id="paint21_linear_1103_9211" x1="187.74" y1="222.9" x2="115.459" y2="133.038" gradientUnits="userSpaceOnUse">
<stop stop-color="#C38C98"/>
<stop offset="1" stop-color="#974C5D"/>
</linearGradient>
<linearGradient id="paint22_linear_1103_9211" x1="35.8629" y1="205.211" x2="26.1043" y2="196.877" gradientUnits="userSpaceOnUse">
<stop stop-color="#435AC2"/>
<stop offset="1" stop-color="#0F24A4"/>
</linearGradient>
<linearGradient id="paint23_linear_1103_9211" x1="36.0141" y1="201.334" x2="27.0629" y2="198.727" gradientUnits="userSpaceOnUse">
<stop stop-color="#D6B0B9"/>
<stop offset="1" stop-color="#A65366"/>
</linearGradient>
<linearGradient id="paint24_linear_1103_9211" x1="186.724" y1="165.741" x2="110.22" y2="100.403" gradientUnits="userSpaceOnUse">
<stop stop-color="#435AC2"/>
<stop offset="1" stop-color="#0F24A4"/>
</linearGradient>
<linearGradient id="paint25_linear_1103_9211" x1="177.565" y1="163.233" x2="110.258" y2="115.877" gradientUnits="userSpaceOnUse">
<stop stop-color="#C38C98"/>
<stop offset="1" stop-color="#974C5D"/>
</linearGradient>
<linearGradient id="paint26_linear_1103_9211" x1="96.8681" y1="123.286" x2="87.9169" y2="120.679" gradientUnits="userSpaceOnUse">
<stop stop-color="#F6EEF0"/>
<stop offset="1" stop-color="#A65366"/>
</linearGradient>
<linearGradient id="paint27_linear_1103_9211" x1="96.8681" y1="123.286" x2="87.9169" y2="120.679" gradientUnits="userSpaceOnUse">
<stop stop-color="#D6B0B9"/>
<stop offset="1" stop-color="#A65366"/>
</linearGradient>
<linearGradient id="paint28_linear_1103_9211" x1="205.749" y1="261.615" x2="306.083" y2="261.615" gradientUnits="userSpaceOnUse">
<stop stop-color="#C25777"/>
<stop offset="1" stop-color="#882A3F"/>
</linearGradient>
<linearGradient id="paint29_linear_1103_9211" x1="160.48" y1="141.255" x2="403.036" y2="141.255" gradientUnits="userSpaceOnUse">
<stop stop-color="#D06283"/>
<stop offset="1" stop-color="#903449"/>
</linearGradient>
<linearGradient id="paint30_linear_1103_9211" x1="169.584" y1="100.492" x2="347.749" y2="91.7468" gradientUnits="userSpaceOnUse">
<stop stop-color="#D28789"/>
<stop offset="1" stop-color="#CA6078"/>
</linearGradient>
<linearGradient id="paint31_linear_1103_9211" x1="299.447" y1="28.292" x2="199.944" y2="142.124" gradientUnits="userSpaceOnUse">
<stop stop-color="#FFE2E4"/>
<stop offset="1" stop-color="#FFC1C2"/>
</linearGradient>
<linearGradient id="paint32_linear_1103_9211" x1="256.486" y1="24.6779" x2="246.968" y2="35.5674" gradientUnits="userSpaceOnUse">
<stop stop-color="#FFE2E4"/>
<stop offset="1" stop-color="#FFC1C2"/>
</linearGradient>
<linearGradient id="paint33_linear_1103_9211" x1="260.94" y1="133.896" x2="252.063" y2="144.052" gradientUnits="userSpaceOnUse">
<stop stop-color="#FFE2E4"/>
<stop offset="1" stop-color="#FFC1C2"/>
</linearGradient>
<linearGradient id="paint34_linear_1103_9211" x1="330.789" y1="55.5329" x2="322.866" y2="64.5981" gradientUnits="userSpaceOnUse">
<stop stop-color="#FFE2E4"/>
<stop offset="1" stop-color="#FFC1C2"/>
</linearGradient>
<linearGradient id="paint35_linear_1103_9211" x1="302.239" y1="101.527" x2="295.516" y2="109.219" gradientUnits="userSpaceOnUse">
<stop stop-color="#FFE2E4"/>
<stop offset="1" stop-color="#FFC1C2"/>
</linearGradient>
<linearGradient id="paint36_linear_1103_9211" x1="198.536" y1="115.967" x2="188.931" y2="126.955" gradientUnits="userSpaceOnUse">
<stop stop-color="#FFE2E4"/>
<stop offset="1" stop-color="#FFC1C2"/>
</linearGradient>
<linearGradient id="paint37_linear_1103_9211" x1="300.578" y1="26.4911" x2="297.176" y2="30.3833" gradientUnits="userSpaceOnUse">
<stop stop-color="#FFE2E4"/>
<stop offset="1" stop-color="#FFC1C2"/>
</linearGradient>
<linearGradient id="paint38_linear_1103_9211" x1="223.465" y1="157.664" x2="219.143" y2="162.609" gradientUnits="userSpaceOnUse">
<stop stop-color="#FFE2E4"/>
<stop offset="1" stop-color="#FFC1C2"/>
</linearGradient>
<linearGradient id="paint39_linear_1103_9211" x1="254.59" y1="62.1569" x2="248.827" y2="68.7496" gradientUnits="userSpaceOnUse">
<stop stop-color="#FFE2E4"/>
<stop offset="1" stop-color="#FFC1C2"/>
</linearGradient>
<linearGradient id="paint40_linear_1103_9211" x1="293.838" y1="60.9073" x2="289.356" y2="66.035" gradientUnits="userSpaceOnUse">
<stop stop-color="#FFE2E4"/>
<stop offset="1" stop-color="#FFC1C2"/>
</linearGradient>
<linearGradient id="paint41_linear_1103_9211" x1="219.997" y1="83.992" x2="215.514" y2="89.1197" gradientUnits="userSpaceOnUse">
<stop stop-color="#FFE2E4"/>
<stop offset="1" stop-color="#FFC1C2"/>
</linearGradient>
<linearGradient id="paint42_linear_1103_9211" x1="265.06" y1="98.2708" x2="261.431" y2="102.425" gradientUnits="userSpaceOnUse">
<stop stop-color="#FFE2E4"/>
<stop offset="1" stop-color="#FFC1C2"/>
</linearGradient>
<linearGradient id="paint43_linear_1103_9211" x1="191.558" y1="78.4597" x2="188.248" y2="82.2457" gradientUnits="userSpaceOnUse">
<stop stop-color="#FFE2E4"/>
<stop offset="1" stop-color="#FFC1C2"/>
</linearGradient>
<linearGradient id="paint44_linear_1103_9211" x1="233.604" y1="109.404" x2="227.92" y2="115.906" gradientUnits="userSpaceOnUse">
<stop stop-color="#FFE2E4"/>
<stop offset="1" stop-color="#FFC1C2"/>
</linearGradient>
<linearGradient id="paint45_linear_1103_9211" x1="212.748" y1="51.0425" x2="206.585" y2="58.0944" gradientUnits="userSpaceOnUse">
<stop stop-color="#FFE2E4"/>
<stop offset="1" stop-color="#FFC1C2"/>
</linearGradient>
<linearGradient id="paint46_linear_1103_9211" x1="232.515" y1="268.903" x2="156.94" y2="259.089" gradientUnits="userSpaceOnUse">
<stop stop-color="#F6EEF0"/>
<stop offset="1" stop-color="#A65366"/>
</linearGradient>
<linearGradient id="paint47_linear_1103_9211" x1="197.29" y1="253.366" x2="181.344" y2="252.09" gradientUnits="userSpaceOnUse">
<stop stop-color="#7A8FD8"/>
<stop offset="1" stop-color="#435AC2"/>
</linearGradient>
<linearGradient id="paint48_linear_1103_9211" x1="175.417" y1="256.475" x2="189.723" y2="254.136" gradientUnits="userSpaceOnUse">
<stop stop-color="#484848"/>
<stop offset="1" stop-color="#181818"/>
</linearGradient>
<linearGradient id="paint49_linear_1103_9211" x1="181.807" y1="254.494" x2="165.413" y2="249.9" gradientUnits="userSpaceOnUse">
<stop stop-color="#7A8FD8"/>
<stop offset="1" stop-color="#435AC2"/>
</linearGradient>
<linearGradient id="paint50_linear_1103_9211" x1="159.629" y1="256.108" x2="175.818" y2="253.055" gradientUnits="userSpaceOnUse">
<stop stop-color="#484848"/>
<stop offset="1" stop-color="#181818"/>
</linearGradient>
<linearGradient id="paint51_linear_1103_9211" x1="200.467" y1="185.649" x2="178.308" y2="202.867" gradientUnits="userSpaceOnUse">
<stop stop-color="#FFC1C2"/>
<stop offset="1" stop-color="#FE958F"/>
</linearGradient>
<linearGradient id="paint52_linear_1103_9211" x1="212.579" y1="194.919" x2="184.707" y2="177.63" gradientUnits="userSpaceOnUse">
<stop stop-color="#CD5688"/>
<stop offset="1" stop-color="#BB4747"/>
</linearGradient>
<linearGradient id="paint53_linear_1103_9211" x1="191.917" y1="207.248" x2="167.217" y2="203.295" gradientUnits="userSpaceOnUse">
<stop stop-color="#CD5688"/>
<stop offset="1" stop-color="#BB4747"/>
</linearGradient>
<linearGradient id="paint54_linear_1103_9211" x1="172.91" y1="207.953" x2="161.938" y2="203.275" gradientUnits="userSpaceOnUse">
<stop stop-color="#FFC1C2"/>
<stop offset="1" stop-color="#FE958F"/>
</linearGradient>
<linearGradient id="paint55_linear_1103_9211" x1="179.215" y1="208.198" x2="157.471" y2="204.766" gradientUnits="userSpaceOnUse">
<stop stop-color="#CD5688"/>
<stop offset="1" stop-color="#BB4747"/>
</linearGradient>
<linearGradient id="paint56_linear_1103_9211" x1="287.884" y1="319.44" x2="396.593" y2="319.44" gradientUnits="userSpaceOnUse">
<stop stop-color="#965162"/>
<stop offset="1" stop-color="#D06283"/>
</linearGradient>
<linearGradient id="paint57_linear_1103_9211" x1="294.11" y1="319.439" x2="389.522" y2="319.439" gradientUnits="userSpaceOnUse">
<stop stop-color="#D06283"/>
<stop offset="1" stop-color="#863648"/>
</linearGradient>
<linearGradient id="paint58_linear_1103_9211" x1="328.503" y1="273.422" x2="328.503" y2="368.539" gradientUnits="userSpaceOnUse">
<stop stop-color="#FFE2E4"/>
<stop offset="1" stop-color="#FFC1C2"/>
</linearGradient>
<linearGradient id="paint59_linear_1103_9211" x1="366.892" y1="273.422" x2="366.892" y2="368.539" gradientUnits="userSpaceOnUse">
<stop stop-color="#FFE2E4"/>
<stop offset="1" stop-color="#FFC1C2"/>
</linearGradient>
<linearGradient id="paint60_linear_1103_9211" x1="404.427" y1="344.439" x2="422.078" y2="343.616" gradientUnits="userSpaceOnUse">
<stop stop-color="#121212"/>
<stop offset="1" stop-color="#484848"/>
</linearGradient>
<linearGradient id="paint61_linear_1103_9211" x1="417.238" y1="339.485" x2="439.596" y2="333.365" gradientUnits="userSpaceOnUse">
<stop stop-color="#484848"/>
<stop offset="1" stop-color="#181818"/>
</linearGradient>
<linearGradient id="paint62_linear_1103_9211" x1="402.411" y1="279.846" x2="424.174" y2="288.811" gradientUnits="userSpaceOnUse">
<stop stop-color="#C33481"/>
<stop offset="1" stop-color="#710C43"/>
</linearGradient>
<linearGradient id="paint63_linear_1103_9211" x1="430.579" y1="295.637" x2="441.826" y2="290.798" gradientUnits="userSpaceOnUse">
<stop stop-color="#C23481"/>
<stop offset="1" stop-color="#931D5D"/>
</linearGradient>
</defs>
</svg>
