<svg width="200" height="200" viewBox="0 0 200 200" fill="none" xmlns="http://www.w3.org/2000/svg">
<rect width="200" height="200" rx="32" fill="white"/>
<path d="M110.411 50.2912H110.404C109.802 49.9608 109.156 49.6818 108.466 49.4762L105.316 48.5292C104.692 49.0138 104.009 49.4102 103.275 49.7039C102.233 50.1296 101.146 50.3425 100.038 50.3425C98.9292 50.3425 97.8428 50.1296 96.8003 49.7039C96.0662 49.4102 95.3834 49.0138 94.7594 48.5292L91.61 49.4762C90.9199 49.6818 90.2665 49.9534 89.6645 50.2838C86.6178 51.9429 84.8046 55.0116 85.1203 58.2711L85.502 62.1767C85.5754 62.2134 85.6562 62.2427 85.737 62.2795C89.5691 63.9607 94.5685 64.9737 100.038 64.9737C105.507 64.9737 110.507 63.9607 114.339 62.2795C114.419 62.2427 114.5 62.2134 114.574 62.1767L114.955 58.2711C115.271 55.0116 113.45 51.9503 110.411 50.2912Z" fill="#0D0C0D"/>
<path d="M93.2616 41.3643C93.4304 44.2862 95.2218 46.6867 97.6297 47.6631C98.3858 47.9714 99.1933 48.1403 100.038 48.1403C100.882 48.1403 101.689 47.9714 102.446 47.6631C104.854 46.6867 106.645 44.2862 106.814 41.3643L107.005 38.0975C107.012 37.9359 107.019 37.7818 107.019 37.6202C107.019 33.4871 103.995 30 100.038 30C95.9338 30 92.8211 33.7587 93.0707 38.0975L93.2616 41.3643Z" fill="#0D0C0D"/>
<path d="M128.384 49.2193L125.969 48.4926C125.367 48.9844 124.699 49.3808 123.972 49.6818C123.039 50.0636 122.048 50.2618 121.043 50.2618C120.037 50.2618 119.046 50.0636 118.106 49.6744C117.379 49.3735 116.704 48.9771 116.102 48.4926L113.775 49.1973C116.807 51.407 118.495 54.9162 118.15 58.484L117.746 62.5731C118.818 62.6686 119.919 62.72 121.043 62.72C125.903 62.72 130.337 61.8023 133.706 60.2827L134.044 56.8836C134.374 53.4846 132.04 50.3205 128.384 49.2193Z" fill="#0D0C0D"/>
<path d="M115.14 42.1505C115.287 44.6979 116.85 46.7901 118.943 47.6418C119.603 47.9134 120.308 48.0602 121.042 48.0602C121.776 48.0602 122.481 47.9134 123.142 47.6418C125.234 46.7901 126.798 44.6979 126.952 42.1505L127.114 39.3094C127.121 39.1699 127.128 39.0304 127.128 38.8909C127.128 35.2863 124.485 32.2543 121.042 32.2543C117.467 32.2543 114.758 35.5213 114.978 39.3094L115.14 42.1505Z" fill="#0D0C0D"/>
<path d="M86.3005 49.1974L83.9734 48.4927C83.3713 48.9772 82.6959 49.3735 81.9691 49.6745C81.0294 50.0636 80.0384 50.2619 79.0326 50.2619C78.0268 50.2619 77.0358 50.0636 76.1034 49.6818C75.3767 49.3808 74.7085 48.9844 74.1066 48.4926L71.6913 49.2193C68.0353 50.3204 65.7008 53.4845 66.031 56.8835L66.3687 60.2826C69.7384 61.8022 74.1725 62.7199 79.0324 62.72C80.1557 62.72 81.2569 62.6687 82.3287 62.5732L81.925 58.4841C81.58 54.9163 83.2685 51.4072 86.3005 49.1974Z" fill="#0D0C0D"/>
<path d="M73.1226 42.1481C73.2767 44.6957 74.8403 46.7878 76.9326 47.6396C77.5933 47.9112 78.2981 48.058 79.0322 48.058C79.7664 48.0581 80.4711 47.9112 81.1318 47.6396C83.2241 46.788 84.7879 44.6958 84.9347 42.1483L85.0963 39.3072C85.3166 35.5191 82.6077 32.2522 79.0324 32.2521C75.5894 32.2521 72.9465 35.284 72.9464 38.8886C72.9464 39.0282 72.9537 39.1676 72.9611 39.3071L73.1226 42.1481Z" fill="#0D0C0D"/>
<rect x="91" y="75.1213" width="18.3281" height="93.4731" fill="#0D0C0D"/>
<path d="M70.8175 44.0369C64.1016 41.4945 57.1561 39.0464 49.869 40.0335C49.3818 40.0996 49.0661 40.6656 49.0513 41.1075C48.8106 48.3508 49.3135 55.9543 52.8125 62.4592C55.8482 68.1019 61.2115 72.2598 67.3139 74.1159C70.7662 75.1662 74.3819 75.4128 77.9464 74.8884C79.3598 74.6804 78.759 72.5331 77.3537 72.7396C71.5825 73.5886 65.6049 71.8825 60.9256 68.4651C55.7353 64.6741 52.95 58.8443 51.8685 52.6268C51.2082 48.8306 51.1518 44.949 51.2788 41.1075C51.0062 41.4655 50.7336 41.8242 50.461 42.1823C57.2705 41.2605 63.9716 43.8185 70.2248 46.1857C71.5677 46.6937 72.1478 44.5405 70.8175 44.0369Z" fill="#0D0C0D"/>
<path d="M54.5396 55.6044C55.0914 57.1694 55.826 58.669 56.7685 60.0364C57.2469 60.7301 57.769 61.3986 58.332 62.0262C58.589 62.3129 58.8557 62.5914 59.1312 62.8603C59.2842 63.0096 59.4402 63.1567 59.5992 63.3C59.6623 63.3572 59.7262 63.4144 59.7908 63.4708C59.8391 63.5132 59.8873 63.5555 59.9364 63.5971C60.0619 63.7145 60.0255 63.6335 59.8272 63.3527C59.8643 63.0668 59.9022 62.7801 59.9393 62.4941C59.9304 62.512 59.9223 62.5305 59.9133 62.5484C60.0463 62.4154 60.18 62.2817 60.3129 62.1488C60.2951 62.1592 60.2773 62.1696 60.2595 62.18C60.4466 62.1294 60.6345 62.0782 60.8217 62.0277C60.8032 62.0277 60.7846 62.0277 60.766 62.0277C61.0289 62.1361 61.2911 62.2453 61.5541 62.3538C61.5429 62.3411 61.531 62.3278 61.5199 62.3151C61.1233 61.8621 60.3501 61.9096 59.9445 62.3151C59.4952 62.7645 59.5472 63.4367 59.9445 63.8905C60.4808 64.5025 61.4954 64.2938 61.8638 63.6179C62.2686 62.8759 61.7999 62.281 61.2711 61.8086C60.5528 61.1668 59.8888 60.4657 59.2857 59.7148C58.2139 58.3793 57.2602 56.6309 56.6891 55.011C56.4893 54.4435 55.9278 54.0654 55.3187 54.2326C54.7676 54.3848 54.3383 55.0347 54.5396 55.6044Z" fill="#0D0C0D"/>
<path d="M129.844 46.9809C135.881 43.9372 142.698 41.0442 149.598 42.3098C149.339 41.853 149.08 41.3962 148.82 40.9394C147.188 47.7386 145.74 55.0115 142.214 61.134C139.39 66.0391 134.835 69.9088 129.59 72.0219C126.648 73.2066 123.527 73.8521 120.354 73.8929C118.922 73.9115 118.918 76.1397 120.354 76.1211C126.402 76.0439 132.315 73.9248 137.101 70.2401C139.47 68.4159 141.539 66.2389 143.209 63.7551C145.154 60.8599 146.46 57.5733 147.543 54.2732C148.915 50.0916 149.943 45.8082 150.97 41.5314C151.101 40.9855 150.8 40.2725 150.191 40.161C142.635 38.7751 135.353 41.7126 128.72 45.0565C127.439 45.7027 128.566 47.6257 129.844 46.9809Z" fill="#0D0C0D"/>
<path d="M134.319 66.3727C135.647 66.3616 136.917 65.6322 137.592 64.4869C137.738 64.2381 137.78 63.9068 137.704 63.6283C137.633 63.3698 137.433 63.0898 137.192 62.9628C136.934 62.8261 136.62 62.7578 136.333 62.8506C136.056 62.9405 135.818 63.1069 135.668 63.3624C135.609 63.4626 135.544 63.5585 135.473 63.6513C135.531 63.5763 135.588 63.5013 135.647 63.4255C135.51 63.5993 135.353 63.7545 135.179 63.8912C135.254 63.8333 135.329 63.7753 135.405 63.7167C135.21 63.8659 135 63.9892 134.774 64.0858C134.863 64.0487 134.952 64.0108 135.04 63.9736C134.825 64.0628 134.601 64.1252 134.37 64.1593C134.469 64.146 134.568 64.1326 134.667 64.1192C134.552 64.1348 134.436 64.143 134.319 64.1437C134.032 64.146 133.735 64.2663 133.531 64.4698C133.338 64.6629 133.192 64.9801 133.205 65.2579C133.232 65.858 133.695 66.3779 134.319 66.3727Z" fill="#0D0C0D"/>
</svg>
