<svg width="126" height="37" viewBox="0 0 126 37" fill="none" xmlns="http://www.w3.org/2000/svg">
    <path d="M38.7284 23.8441H87.5402C87.5714 23.8441 87.5999 23.8267 87.6141 23.799L91.5298 16.1979C91.5681 16.1236 91.6798 16.1459 91.6866 16.2292L93.2981 35.7972C93.3058 35.8909 93.4388 35.9017 93.4616 35.8105L96.4375 23.907C96.4467 23.87 96.48 23.8441 96.5181 23.8441H98.8485H102.92" stroke="url(#paint0_linear_797_12232)" stroke-width="1.24714" stroke-linecap="round"/>
    <path d="M7.23652 10.2477V12.1307H0.653682V10.2477H7.23652ZM2.41904 7.36031H4.76501V18.7606C4.76501 19.2157 4.83301 19.5583 4.96901 19.7885C5.10501 20.0134 5.28024 20.1677 5.4947 20.2514C5.71439 20.3298 5.95238 20.3691 6.20869 20.3691C6.39699 20.3691 6.56176 20.356 6.70299 20.3298C6.84422 20.3037 6.95406 20.2828 7.03252 20.2671L7.45621 22.205C7.32021 22.2573 7.12668 22.3097 6.8756 22.362C6.62453 22.4195 6.31069 22.4509 5.93408 22.4561C5.31685 22.4666 4.74148 22.3567 4.20794 22.1266C3.67441 21.8964 3.24288 21.5407 2.91335 21.0595C2.58381 20.5783 2.41904 19.9741 2.41904 19.2471V7.36031ZM9.8316 22.2992V10.2477H12.0991V12.1621H12.2246C12.4443 11.5135 12.8314 11.0035 13.3859 10.6321C13.9456 10.2555 14.5785 10.0672 15.2846 10.0672C15.4311 10.0672 15.6037 10.0724 15.8025 10.0829C16.0064 10.0933 16.166 10.1064 16.2811 10.1221V12.3661C16.1869 12.3399 16.0195 12.3112 15.7789 12.2798C15.5383 12.2432 15.2977 12.2249 15.0571 12.2249C14.5026 12.2249 14.0083 12.3426 13.5742 12.5779C13.1453 12.8081 12.8053 13.1298 12.5542 13.543C12.3031 13.951 12.1776 14.4165 12.1776 14.9396V22.2992H9.8316ZM25.9454 17.3013V10.2477H28.2993V22.2992H25.9925V20.2121H25.867C25.5897 20.8555 25.1451 21.3917 24.5331 21.8206C23.9264 22.2443 23.1705 22.4561 22.2656 22.4561C21.4915 22.4561 20.8063 22.2861 20.21 21.9461C19.6189 21.6009 19.1534 21.0909 18.8134 20.4161C18.4786 19.7414 18.3112 18.9071 18.3112 17.9133V10.2477H20.6572V17.6308C20.6572 18.452 20.8847 19.1059 21.3398 19.5923C21.7949 20.0788 22.3859 20.322 23.113 20.322C23.5524 20.322 23.9892 20.2121 24.4233 19.9925C24.8627 19.7728 25.2262 19.4406 25.5139 18.996C25.8068 18.5514 25.9507 17.9865 25.9454 17.3013ZM31.4514 26.8185V10.2477H33.7425V12.2013H33.9386C34.0746 11.9502 34.2708 11.6599 34.5271 11.3304C34.7834 11.0009 35.139 10.7132 35.5941 10.4673C36.0492 10.2163 36.6507 10.0907 37.3987 10.0907C38.3716 10.0907 39.2399 10.3366 40.0036 10.8283C40.7673 11.32 41.3662 12.0287 41.8003 12.9545C42.2397 13.8804 42.4594 14.9945 42.4594 16.297C42.4594 17.5994 42.2423 18.7162 41.8082 19.6472C41.374 20.5731 40.7777 21.2871 40.0193 21.7892C39.2608 22.2861 38.3952 22.5346 37.4222 22.5346C36.69 22.5346 36.091 22.4117 35.6255 22.1658C35.1652 21.92 34.8043 21.6323 34.5427 21.3027C34.2812 20.9732 34.0798 20.6803 33.9386 20.424H33.7974V26.8185H31.4514ZM33.7503 16.2734C33.7503 17.1208 33.8732 17.8636 34.1191 18.5017C34.3649 19.1399 34.7206 19.6394 35.1861 20.0003C35.6517 20.356 36.2218 20.5338 36.8966 20.5338C37.5975 20.5338 38.1833 20.3481 38.6541 19.9768C39.1248 19.6002 39.4805 19.0902 39.7211 18.4468C39.967 17.8034 40.0899 17.079 40.0899 16.2734C40.0899 15.4784 39.9696 14.7644 39.729 14.1315C39.4936 13.4985 39.1379 12.999 38.6619 12.6329C38.1912 12.2667 37.6027 12.0836 36.8966 12.0836C36.2166 12.0836 35.6412 12.2589 35.1704 12.6093C34.7049 12.9598 34.3518 13.4488 34.1112 14.0765C33.8706 14.7042 33.7503 15.4365 33.7503 16.2734ZM52.7221 17.3013V10.2477H55.0759V22.2992H52.7691V20.2121H52.6436C52.3664 20.8555 51.9218 21.3917 51.3098 21.8206C50.703 22.2443 49.9472 22.4561 49.0423 22.4561C48.2681 22.4561 47.5829 22.2861 46.9866 21.9461C46.3955 21.6009 45.93 21.0909 45.59 20.4161C45.2552 19.7414 45.0878 18.9071 45.0878 17.9133V10.2477H47.4338V17.6308C47.4338 18.452 47.6614 19.1059 48.1164 19.5923C48.5715 20.0788 49.1626 20.322 49.8896 20.322C50.329 20.322 50.7658 20.2121 51.1999 19.9925C51.6393 19.7728 52.0028 19.4406 52.2905 18.996C52.5834 18.5514 52.7273 17.9865 52.7221 17.3013ZM60.574 6.23048V22.2992H58.228V6.23048H60.574ZM72.7609 13.1899L70.6346 13.5665C70.5457 13.2945 70.4044 13.0356 70.2109 12.7898C70.0226 12.5439 69.7663 12.3426 69.442 12.1856C69.1177 12.0287 68.7123 11.9502 68.2259 11.9502C67.5616 11.9502 67.0071 12.0993 66.5625 12.3975C66.1179 12.6904 65.8956 13.0696 65.8956 13.5352C65.8956 13.9379 66.0446 14.2622 66.3428 14.5081C66.641 14.7539 67.1222 14.9553 67.7865 15.1122L69.7009 15.5516C70.8098 15.8079 71.6363 16.2028 72.1803 16.7363C72.7243 17.2699 72.9963 17.9629 72.9963 18.8155C72.9963 19.5374 72.787 20.1808 72.3686 20.7457C71.9553 21.3054 71.3774 21.7447 70.6346 22.0638C69.8971 22.3829 69.0418 22.5424 68.0689 22.5424C66.7194 22.5424 65.6183 22.2547 64.7657 21.6794C63.9131 21.0987 63.3901 20.2749 63.1965 19.2078L65.464 18.8626C65.6053 19.4537 65.8956 19.9009 66.335 20.2043C66.7743 20.5024 67.3471 20.6515 68.0532 20.6515C68.8222 20.6515 69.4368 20.492 69.8971 20.1729C70.3574 19.8486 70.5875 19.4537 70.5875 18.9882C70.5875 18.6115 70.4463 18.2951 70.1638 18.0388C69.8866 17.7825 69.4603 17.5889 68.8849 17.4582L66.8449 17.011C65.7203 16.7546 64.8887 16.3467 64.3499 15.787C63.8164 15.2273 63.5496 14.5185 63.5496 13.6607C63.5496 12.9493 63.7484 12.3269 64.1459 11.7933C64.5434 11.2598 65.0927 10.844 65.7936 10.5458C66.4945 10.2424 67.2974 10.0907 68.2023 10.0907C69.5048 10.0907 70.53 10.3732 71.278 10.9381C72.026 11.4978 72.5203 12.2484 72.7609 13.1899ZM80.7697 22.5424C79.5824 22.5424 78.5598 22.2887 77.7019 21.7814C76.8493 21.2687 76.1903 20.5495 75.7247 19.6237C75.2644 18.6926 75.0343 17.602 75.0343 16.3519C75.0343 15.1174 75.2644 14.0295 75.7247 13.0879C76.1903 12.1464 76.8389 11.4115 77.6705 10.8832C78.5075 10.3549 79.4856 10.0907 80.605 10.0907C81.285 10.0907 81.944 10.2032 82.5822 10.4281C83.2203 10.653 83.7931 11.0061 84.3005 11.4873C84.8078 11.9686 85.208 12.5936 85.5009 13.3625C85.7938 14.1262 85.9403 15.0547 85.9403 16.1479V16.9796H76.3603V15.2221H83.6414C83.6414 14.6048 83.5159 14.0582 83.2648 13.5822C83.0137 13.101 82.6606 12.7218 82.2056 12.4446C81.7557 12.1673 81.2274 12.0287 80.6207 12.0287C79.9616 12.0287 79.3862 12.1909 78.8945 12.5152C78.4081 12.8342 78.0315 13.2527 77.7647 13.7705C77.5032 14.2831 77.3724 14.8402 77.3724 15.4417V16.8148C77.3724 17.6203 77.5136 18.3056 77.7961 18.8705C78.0838 19.4354 78.4839 19.8669 78.9965 20.1651C79.5091 20.458 80.108 20.6044 80.7933 20.6044C81.2379 20.6044 81.6433 20.5417 82.0094 20.4161C82.3756 20.2854 82.692 20.0918 82.9588 19.8355C83.2255 19.5792 83.4295 19.2628 83.5708 18.8862L85.7912 19.2863C85.6134 19.9401 85.2943 20.5129 84.834 21.0046C84.3789 21.4911 83.8062 21.8703 83.1157 22.1423C82.4305 22.409 81.6485 22.5424 80.7697 22.5424Z" fill="url(#paint1_linear_797_12232)"/>
    <defs>
    <linearGradient id="paint0_linear_797_12232" x1="1.31874" y1="9.479" x2="99.3593" y2="35.6723" gradientUnits="userSpaceOnUse">
    <stop stop-color="#82334B"/>
    <stop offset="1" stop-color="#D06283"/>
    </linearGradient>
    <linearGradient id="paint1_linear_797_12232" x1="3.09921" y1="7.93623" x2="86.7438" y2="27.0304" gradientUnits="userSpaceOnUse">
    <stop stop-color="#82334B"/>
    <stop offset="1" stop-color="#D06283"/>
    </linearGradient>
    </defs>
    </svg>